<svg height='100px' width='100px'  fill="#1890ff" xmlns="http://www.w3.org/2000/svg" data-name="Слой 1" viewBox="0 0 128 128" x="0px" y="0px"><title>audit, check, verification, test</title><path d="M16,29.77V128h96V0H46.52ZM48,4.14,48.15,4H108V124H20V32H48Z"></path><path d="M36,112H56V92H36Zm4-16H52v12H40Z"></path><polygon points="54 63.2 46.02 71.19 38.03 63.2 35.2 66.03 43.19 74.02 35.2 82 38.03 84.83 46.02 76.84 54 84.83 56.83 82 48.84 74.02 56.83 66.03 54 63.2"></polygon><polygon points="56.83 40.33 54 37.5 44.34 47.16 38 40.82 35.17 43.65 44.34 52.82 56.83 40.33"></polygon><rect x="60" y="44" width="32" height="4"></rect><rect x="60" y="72" width="32" height="4"></rect><rect x="60" y="100" width="32" height="4"></rect></svg>