<svg height='100px' width='100px'  fill="#1890ff" xmlns="http://www.w3.org/2000/svg" data-name="Layer 1" viewBox="0 0 48 48" x="0px" y="0px"><title>mobile-phone-11</title><path d="M40,13H35V5a5,5,0,0,0-5-5H10A5,5,0,0,0,5,5V43a5,5,0,0,0,5,5H30a5,5,0,0,0,5-5V27h5a3,3,0,0,0,3-3V16A3,3,0,0,0,40,13ZM33,43a3,3,0,0,1-3,3H10a3,3,0,0,1-3-3V5a3,3,0,0,1,3-3H30a3,3,0,0,1,3,3v8H14a3,3,0,0,0-3,3v8a3,3,0,0,0,3,3H33Zm8-19a1,1,0,0,1-1,1H14a1,1,0,0,1-1-1V16a1,1,0,0,1,1-1H40a1,1,0,0,1,1,1Z"></path><path d="M18,16.5A3.5,3.5,0,1,0,21.5,20,3.5,3.5,0,0,0,18,16.5Zm0,5A1.5,1.5,0,1,1,19.5,20,1.5,1.5,0,0,1,18,21.5Z"></path><rect x="24" y="21" width="14" height="2"></rect><rect x="24" y="17" width="6" height="2"></rect><path d="M16,44h8a1,1,0,0,0,0-2H16a1,1,0,0,0,0,2Z"></path><path d="M17.5,4.5h5a.5.5,0,0,0,0-1h-5a.5.5,0,0,0,0,1Z"></path></svg>